,
  Hottest scene tracker on the net !!!   http://www.scenetime.com
 
    seed back for speed


 



...................................NFO:.................................................                                                                                                     
       
     
     
       
       
     
     
                                         
                                         
                EXVID                    
                                         
         
                                         
         Filled the Archives             
                                         
         
                                         
                With:                    
                                         
         
                                         
                                    
     E240                           
                                    
     SP               (C) 2009      
                                         
     
     
     
                                                                                  
                                                                                   
     Cousin.Bette.1971.Part.V.Family.Angel.DVDRip.XViD-EXViD                        
                                                                                   
                                                                                  
     
                                                                                               
EXViD aims to iNTERNAL those releases which have been lost in the archives.
EXViD aims to PRE non-internal releases which have poor sources and are likely skipped by others.

Subtitles: None
http://www.imdb.com/title/tt0068062/


Date: 2010.10
Genre: Drama


Plot: Set in Paris, Gareth Davies's film of tragic jealousy and vengeance follows aging spinster Bette (Margaret Tyzack), whose less-than-exciting life causes her such 
	bitterness toward her prosperous relatives that she eventually vows to destroy them. The crowning blow comes when she suffers unbearable humiliation at the hands of 
	her cousin. Colin Baker, Margaret Boyd and Helen Mirren round out the cast of this 1971 adaptation of a Balzac novel. 

  	Margaret Tyzack  ...  Bette (5 episodes, 1971)  
  	Colin Baker  ...  Count Wenceslas Steinbock (5 episodes, 1971)  
  	Helen Mirren  ...  Valerie (5 episodes, 1971)  
  	Ursula Howells  ...  Adeline (5 episodes, 1971)  
  	Thorley Walters  ...  Baron Hector Hulot (5 episodes, 1971)  
  	John Bryans  ...  Crevel (5 episodes, 1971)  
  	Davyd Harries  ...  Victorin (5 episodes, 1971)  
  	Harriet Harper  ...  Hortense (5 episodes, 1971)  

Stats:
Format                           : AVI
Format/Info                      : Audio Video Interleave
File size                        : 695 MiB
Duration                         : 43mn 39s
Overall bit rate                 : 2 227 Kbps
Writing application              : Nandub v1.0rc2
Writing library                  : Nandub build 1852/release

Video
ID                               : 0
Format                           : MPEG-4 Visual
Format profile                   : AdvancedSimple@L5
Format settings, BVOP            : No
Format settings, QPel            : No
Format settings, GMC             : No warppoints
Format settings, Matrix          : Default (H.263)
Codec ID                         : XVID
Codec ID/Hint                    : XviD
Duration                         : 43mn 39s
Bit rate                         : 2 143 Kbps
Width                            : 512 pixels
Height                           : 384 pixels
Display aspect ratio             : 4:3
Frame rate                       : 29.970 fps
Resolution                       : 24 bits
Colorimetry                      : 4:2:0
Scan type                        : Progressive
Bits/(Pixel*Frame)               : 0.364
Stream size                      : 669 MiB (96%)
Writing library                  : XviD 1.2.1 (UTC 2008-12-04)

Audio
ID                               : 1
Format                           : MPEG Audio
Format version                   : Version 1
Format profile                   : Layer 3
Codec ID                         : 55
Codec ID/Hint                    : MP3
Duration                         : 43mn 39s
Bit rate mode                    : Variable
Bit rate                         : 69.9 Kbps
Channel(s)                       : 1 channel
Sampling rate                    : 48.0 KHz
Resolution                       : 16 bits
Stream size                      : 21.8 MiB (3%)
Alignment                        : Aligned on interleaves
Interleave, duration             : 24 ms (0.72 video frame)
Interleave, preload duration     : 318 ms
Writing library                  : LAME3.89 (alpha)


Release notes:
enjoy! Variable frame rate - left at source fps.

Looking for:
75TB+ Archives
                                                                                                    
Greets: CRBS EPiSODE FiCO FLS iLS KLASSiGER LiPSYNC MADE NODLABS RUNNER SPRiNTER
   

                                                                    ASCII DONE BY XX^NFO 2oo9